<svg width="25" height="25" viewBox="0 0 25 25" fill="none" xmlns="http://www.w3.org/2000/svg">
<path d="M12.3178 12.9677C11.798 12.1296 11.4209 11.4348 10.8985 10.1265C10.0152 7.91662 16.2709 5.91974 13.7345 2.08276C14.8339 4.73328 9.7881 6.37183 9.31935 8.57912C8.89071 10.6093 12.3152 12.9677 12.3178 12.9677Z" fill="#F44336"/>
<path d="M12.4366 8.99474C12.3366 10.3052 13.5975 11.0036 13.634 11.9609C13.6631 12.7401 12.8803 13.3895 12.8803 13.3895C12.8803 13.3895 14.3011 13.1104 14.7444 11.9218C15.2366 10.602 13.7892 9.69839 13.9381 8.64162C14.0772 7.63224 17.0793 5.75464 17.0793 5.75464C17.0793 5.75464 12.6621 6.04735 12.4366 8.99474Z" fill="#F44336"/>
<path d="M16.7105 13.0495C17.624 12.8443 18.3943 13.4261 18.3943 14.0964C18.3943 15.6073 16.3001 17.0355 16.3001 17.0355C16.3001 17.0355 19.5423 16.649 19.5423 14.1683C19.5423 12.5276 17.9501 12.1178 16.7105 13.0495ZM15.1714 14.2683C15.1714 14.2683 16.1824 13.548 16.4516 13.2776C13.9709 13.8042 8.30684 13.875 8.30684 13.4178C8.30684 12.9964 10.1334 12.5646 10.1334 12.5646C10.1334 12.5646 6.08496 12.5063 6.08496 13.7006C6.08496 14.9454 11.3844 15.0344 15.1714 14.2683Z" fill="#1565C0"/>
<path d="M14.5496 15.4016C12.2011 16.1823 7.87562 15.9328 9.15687 14.8844C8.53291 14.8844 7.60791 15.386 7.60791 15.8683C7.60791 16.8354 12.286 17.5823 15.7485 16.1662L14.5496 15.4016Z" fill="#1565C0"/>
<path d="M9.73226 17.0516C8.88018 17.0516 8.32861 17.6006 8.32861 18.0006C8.32861 19.2459 13.4119 19.3714 15.426 18.1074L14.1458 17.2574C12.6411 17.9188 8.86143 18.01 9.73226 17.0516Z" fill="#1565C0"/>
<path d="M18.8964 19.0792C18.8964 18.5917 18.3469 18.3621 18.15 18.2522C19.3104 21.0506 6.52656 20.8334 6.52656 19.1813C6.52656 18.8058 7.46771 18.4381 8.3375 18.6121L7.59792 18.1751C5.86458 17.9032 4.6875 18.6652 4.6875 19.2798C4.6875 22.1459 18.8964 22.0079 18.8964 19.0792Z" fill="#1565C0"/>
<path d="M20.3125 20.1063C18.1532 22.2391 12.6776 23.0162 7.17139 21.6985C12.6776 24.0438 20.2865 22.723 20.3125 20.1063Z" fill="#1565C0"/>
</svg>
