<svg width="25" height="25" viewBox="0 0 25 25" fill="none" xmlns="http://www.w3.org/2000/svg">
<g clip-path="url(#clip0_17_2383)">
<path d="M24.5273 14.9703C24.382 14.5301 24.0012 14.2234 23.5088 14.1498C23.2766 14.1152 23.0107 14.13 22.696 14.1948C22.1475 14.308 21.7406 14.3511 21.4436 14.3594C22.5645 12.4669 23.476 10.3087 24.0007 8.27721C24.8492 4.99227 24.3958 3.49577 23.866 2.81888C22.4638 1.02721 20.418 0.0647097 17.95 0.0352589C16.6335 0.0191605 15.4777 0.279104 14.8748 0.466035C14.3134 0.366982 13.7098 0.311679 13.0765 0.301452C11.8892 0.282513 10.8403 0.54132 9.94399 1.07323C9.44777 0.905429 8.65137 0.668876 7.73168 0.517929C5.56861 0.162816 3.82524 0.43952 2.55005 1.34037C1.00592 2.43109 0.290103 4.32617 0.422489 6.97295C0.464534 7.81329 0.93461 10.3701 1.67476 12.7949C2.10014 14.1887 2.55374 15.3461 3.02296 16.2353C3.6884 17.4961 4.40042 18.2387 5.19976 18.5053C5.64777 18.6546 6.46179 18.7591 7.31794 18.0461C7.42647 18.1775 7.57126 18.3081 7.7634 18.4294C8.00743 18.5833 8.30582 18.709 8.60383 18.7836C9.67779 19.052 10.6838 18.9849 11.542 18.6086C11.5473 18.7612 11.5514 18.907 11.5548 19.033C11.5605 19.2372 11.5661 19.4375 11.5736 19.6248C11.6245 20.8913 11.7107 21.8761 11.966 22.5651C11.98 22.603 11.9988 22.6607 12.0187 22.722C12.1461 23.112 12.359 23.7648 12.9009 24.2761C13.462 24.8057 14.1407 24.9681 14.7623 24.9681C15.074 24.9681 15.3714 24.9272 15.6323 24.8713C16.5623 24.672 17.6184 24.3684 18.3824 23.2805C19.1048 22.2521 19.4559 20.7032 19.5195 18.2625C19.5277 18.1935 19.5353 18.1276 19.5426 18.0648L19.5577 17.9358L19.7279 17.9508L19.7717 17.9537C20.7189 17.9969 21.877 17.7961 22.5883 17.4657C23.1503 17.2049 24.9514 16.254 24.5273 14.9703Z" fill="black"/>
<path d="M22.9076 15.2199C20.0914 15.8008 19.8977 14.8473 19.8977 14.8473C22.8712 10.4351 24.1143 4.83446 23.0416 3.46372C20.1151 -0.27539 15.0493 1.49298 14.9648 1.53882L14.9376 1.54374C14.3811 1.42821 13.7585 1.35946 13.0586 1.348C11.7844 1.32717 10.8177 1.68209 10.0842 2.23834C10.0842 2.23834 1.04723 -1.48458 1.46759 6.92054C1.55699 8.70861 4.03047 20.4502 6.98066 16.9037C8.05898 15.6068 9.10093 14.5103 9.10093 14.5103C9.61835 14.8541 10.2379 15.0294 10.8873 14.9665L10.9378 14.9237C10.922 15.0846 10.9292 15.2421 10.9579 15.4286C10.1979 16.2777 10.4213 16.4268 8.90197 16.7396C7.36456 17.0564 8.26769 17.6204 8.85737 17.768C9.57223 17.9467 11.226 18.1999 12.3434 16.6356L12.2989 16.8141C12.5967 17.0526 12.8058 18.3655 12.7707 19.5558C12.7357 20.7459 12.7123 21.5631 12.9469 22.2013C13.1816 22.8396 13.4154 24.2757 15.4128 23.8477C17.0816 23.49 17.9465 22.5632 18.0668 21.0172C18.1522 19.9182 18.3454 20.0807 18.3576 19.098L18.5126 18.6328C18.6913 17.143 18.541 16.6623 19.5691 16.8859L19.8191 16.9078C20.5757 16.9422 21.5663 16.7861 22.1476 16.5159C23.3993 15.935 24.1417 14.965 22.9075 15.2199H22.9076Z" fill="#336791"/>
<path d="M10.6133 7.72014C10.3595 7.68482 10.1297 7.71749 10.0134 7.80556C9.94806 7.85508 9.92779 7.91247 9.9223 7.95196C9.90771 8.0566 9.98101 8.17232 10.0261 8.23198C10.1535 8.40091 10.3397 8.51701 10.524 8.54258C10.5507 8.54637 10.5773 8.54807 10.6037 8.54807C10.911 8.54807 11.1905 8.30877 11.2151 8.13216C11.2459 7.91095 10.9248 7.76342 10.6133 7.72014ZM19.0209 7.72715C18.9966 7.55376 18.6881 7.50432 18.3953 7.54504C18.1029 7.58576 17.8194 7.71777 17.843 7.89154C17.862 8.02667 18.106 8.25735 18.3948 8.25735C18.4193 8.25735 18.4439 8.25574 18.4687 8.25224C18.6615 8.22554 18.803 8.10309 18.8702 8.03254C18.9725 7.92497 19.0318 7.80508 19.0209 7.72715Z" fill="white"/>
<path d="M23.8448 15.1539C23.7374 14.8292 23.3917 14.7247 22.8175 14.8433C21.1125 15.1952 20.5019 14.9514 20.3014 14.8038C21.6267 12.7848 22.7169 10.3443 23.3051 8.06732C23.5837 6.98872 23.7376 5.98701 23.7502 5.17054C23.7641 4.27442 23.6114 3.6159 23.2967 3.21362C22.0275 1.59194 20.1649 0.722052 17.9101 0.698188C16.36 0.680764 15.0504 1.07745 14.7965 1.189C14.2618 1.05605 13.679 0.974419 13.0444 0.964003C11.8808 0.945158 10.8749 1.22376 10.0421 1.79165C9.68038 1.657 8.74553 1.33607 7.60226 1.15188C5.62574 0.8337 4.0551 1.0748 2.93427 1.86883C1.59686 2.81637 0.979436 4.51012 1.09904 6.90292C1.13928 7.70794 1.598 10.1845 2.32186 12.5561C3.2747 15.6777 4.3105 17.4449 5.40027 17.8084C5.52783 17.8509 5.67489 17.8807 5.83711 17.8807C6.23464 17.8807 6.72205 17.7015 7.22915 17.0918C7.84767 16.3499 8.48749 15.6259 9.14781 14.9208C9.57622 15.1507 10.0469 15.2792 10.5282 15.292C10.5292 15.3046 10.5304 15.3172 10.5315 15.3297C10.4487 15.4285 10.3675 15.5288 10.2881 15.6304C9.95463 16.0538 9.88521 16.1419 8.81163 16.363C8.50624 16.426 7.69516 16.5932 7.68322 17.1617C7.67035 17.7829 8.64203 18.0438 8.75273 18.0715C9.13853 18.1681 9.51021 18.2157 9.86466 18.2157C10.7267 18.2157 11.4853 17.9324 12.0916 17.3842C12.0729 19.5988 12.1652 21.781 12.4311 22.4458C12.6489 22.9901 13.181 24.3203 14.8614 24.3203C15.108 24.3203 15.3794 24.2916 15.678 24.2275C17.4319 23.8516 18.1935 23.0764 18.4881 21.3674C18.6458 20.4541 18.9164 18.2731 19.0436 17.1032C19.3122 17.187 19.6579 17.2254 20.0317 17.2253C20.8113 17.2253 21.7108 17.0596 22.2749 16.7978C22.9086 16.5035 24.0522 15.7813 23.8448 15.1539ZM19.6681 7.24857C19.6623 7.59393 19.6148 7.90747 19.5644 8.23474C19.5101 8.58673 19.4541 8.95065 19.4399 9.39241C19.426 9.82234 19.4797 10.2693 19.5316 10.7016C19.6365 11.5747 19.7442 12.4736 19.3274 13.3605C19.2582 13.2378 19.1966 13.111 19.1428 12.9809C19.091 12.8553 18.9785 12.6536 18.8227 12.3744C18.2167 11.2877 16.7977 8.74279 17.5241 7.70434C17.7405 7.39525 18.2897 7.07745 19.6681 7.24857ZM17.9972 1.39753C20.0175 1.44213 21.6156 2.1979 22.747 3.64374C23.6149 4.75273 22.6593 9.79885 19.8929 14.1522C19.8651 14.1168 19.8371 14.0815 19.809 14.0464L19.7739 14.0026C20.4888 12.8221 20.349 11.654 20.2246 10.6184C20.1735 10.1934 20.1252 9.79194 20.1375 9.41485C20.1502 9.01523 20.203 8.67243 20.2542 8.34099C20.3169 7.93256 20.3809 7.50993 20.3632 7.01173C20.3764 6.95946 20.3817 6.89771 20.3748 6.82442C20.3298 6.34667 19.7844 4.91684 18.6726 3.62271C18.0645 2.91486 17.1776 2.12271 15.9667 1.58843C16.4876 1.48048 17.1998 1.37982 17.9972 1.39753ZM6.6925 16.6456C6.13379 17.3174 5.748 17.1886 5.6211 17.1464C4.7944 16.8706 3.83512 15.1233 2.98938 12.3524C2.25756 9.95491 1.82991 7.54402 1.79601 6.86798C1.68919 4.72991 2.20747 3.23986 3.33654 2.4391C5.17404 1.13607 8.19506 1.91599 9.40898 2.31154C9.39156 2.32878 9.37338 2.34487 9.35614 2.36239C7.3641 4.37414 7.41135 7.81126 7.41627 8.02139C7.41608 8.10245 7.4229 8.21722 7.43218 8.37508C7.46646 8.95321 7.53029 10.0292 7.35983 11.2476C7.2015 12.3799 7.55055 13.4882 8.31732 14.2882C8.39601 14.3702 8.47871 14.4482 8.56514 14.522C8.22385 14.8875 7.48209 15.6958 6.6925 16.6456ZM8.8212 13.8054C8.20321 13.1605 7.92252 12.2635 8.05103 11.3442C8.23095 10.0571 8.16457 8.93607 8.12887 8.33379C8.12385 8.24951 8.1194 8.17565 8.11684 8.11741C8.40784 7.85936 9.75642 7.13682 10.7182 7.35718C11.157 7.45766 11.4244 7.75652 11.5356 8.27054C12.111 10.9318 11.6117 12.041 11.2106 12.9324C11.1279 13.116 11.0498 13.2896 10.9831 13.4691L10.9314 13.6079C10.8006 13.9589 10.6788 14.2852 10.6033 14.5951C9.94629 14.5932 9.30718 14.3125 8.8212 13.8053V13.8054ZM8.92205 17.3944C8.73019 17.3465 8.55766 17.2632 8.45642 17.1942C8.54099 17.1544 8.69146 17.1003 8.95245 17.0465C10.2154 16.7865 10.4105 16.603 10.8364 16.0622C10.9341 15.9382 11.0448 15.7976 11.1981 15.6264L11.1983 15.6262C11.4266 15.3705 11.531 15.4139 11.7204 15.4925C11.8739 15.556 12.0235 15.7484 12.0841 15.9601C12.1128 16.0601 12.145 16.2499 12.0396 16.3976C11.1498 17.6435 9.8532 17.6274 8.92205 17.3944ZM15.5318 23.5452C13.9867 23.8762 13.4397 23.0879 13.0792 22.1866C12.8465 21.6048 12.7321 18.9811 12.8132 16.0837C12.8143 16.0452 12.8088 16.0079 12.7982 15.9729C12.7887 15.9037 12.7743 15.8353 12.755 15.7682C12.6344 15.3466 12.3403 14.9939 11.9876 14.8477C11.8474 14.7897 11.5902 14.6831 11.2811 14.7622C11.347 14.4906 11.4613 14.1839 11.5853 13.8518L11.6373 13.7121C11.6958 13.5546 11.7693 13.3915 11.847 13.2187C12.2667 12.2862 12.8417 11.0088 12.2177 8.12309C11.984 7.04222 11.2035 6.51438 10.0203 6.63701C9.31106 6.7104 8.66211 6.99658 8.33843 7.16069C8.26883 7.19591 8.20519 7.23001 8.14572 7.26315C8.23606 6.17413 8.57735 4.13891 9.85406 2.85122C10.6579 2.04061 11.7285 1.64023 13.0328 1.66182C15.6029 1.70387 17.251 3.02281 18.1811 4.12196C18.9827 5.06902 19.4167 6.02309 19.5899 6.53768C18.2873 6.4052 17.4014 6.6623 16.9524 7.30434C15.9754 8.70093 17.4868 11.4115 18.2132 12.7143C18.3465 12.953 18.4614 13.1594 18.4976 13.2471C18.7342 13.8203 19.0404 14.2031 19.264 14.4825C19.3326 14.5681 19.399 14.6511 19.4496 14.7237C19.0551 14.8374 18.3465 15.1002 18.4111 16.4137C18.359 17.0728 17.9886 20.1586 17.8005 21.2488C17.5521 22.6892 17.022 23.2257 15.5318 23.5453V23.5452ZM21.981 16.1649C21.5776 16.3521 20.9025 16.4925 20.2613 16.5227C19.5529 16.5559 19.1923 16.4434 19.1075 16.3741C19.0677 15.5556 19.3723 15.4701 19.6948 15.3795C19.7454 15.3653 19.7949 15.3514 19.8426 15.3347C19.8722 15.3589 19.9047 15.3828 19.9403 15.4063C20.5096 15.7821 21.5251 15.8226 22.9587 15.5267L22.9744 15.5236C22.781 15.7043 22.4502 15.947 21.981 16.1649Z" fill="white"/>
</g>
<defs>
<clipPath id="clip0_17_2383">
<rect width="25" height="25" fill="white"/>
</clipPath>
</defs>
</svg>
