<svg width="56" height="50" viewBox="0 0 56 50" fill="none" xmlns="http://www.w3.org/2000/svg">
<g clip-path="url(#clip0_9_533)">
<path d="M28.0987 19.6289C25.1363 19.6289 22.7349 22.0118 22.7349 24.9512C22.7349 27.8906 25.1363 30.2734 28.0987 30.2734C31.061 30.2734 33.4625 27.8906 33.4625 24.9512C33.4625 22.0118 31.061 19.6289 28.0987 19.6289Z" fill="#58C4DC"/>
<path d="M55.996 24.9995C55.996 20.8211 52.0965 17.1564 45.8877 14.7446C45.9706 14.2015 46.0457 13.6643 46.0991 13.1368C46.7114 7.13296 45.2536 2.79967 41.9961 0.933022C38.3513 -1.15519 33.2033 0.360478 27.998 4.49377C22.7927 0.360478 17.6447 -1.15519 14 0.933022C10.7425 2.79967 9.28461 7.13296 9.89699 13.1368C9.95033 13.6643 10.0234 14.2035 10.1084 14.7486C9.5908 14.9446 9.08311 15.1525 8.59517 15.3701C3.05207 17.8427 0 21.2662 0 24.9995C0 29.1778 3.89953 32.8425 10.1084 35.2543C10.0234 35.7974 9.95033 36.3346 9.89699 36.8621C9.28461 42.8659 10.7425 47.1992 14 49.0659C15.12 49.6961 16.389 50.0182 17.6763 49.9992C20.762 49.9992 24.3652 48.3875 27.998 45.5051C31.6289 48.3875 35.2341 49.9992 38.3237 49.9992C39.6109 50.018 40.8799 49.6958 42 49.0659C45.2575 47.1992 46.7154 42.8659 46.103 36.8621C46.0497 36.3346 45.9746 35.7974 45.8916 35.2543C52.1005 32.8464 56 29.1759 56 24.9995M38.3 2.64673C39.1277 2.62691 39.9458 2.82586 40.6705 3.2232C42.9324 4.51926 43.9478 8.03491 43.4539 12.8682C43.4203 13.1976 43.3808 13.5309 43.3334 13.8662C40.7518 13.0945 38.1081 12.5442 35.4316 12.2211C33.8091 10.0805 32.0049 8.08168 30.0387 6.24669C33.1263 3.87809 36.0243 2.64673 38.298 2.64673M37.2372 30.2935C36.2381 32.0147 35.1502 33.6836 33.9777 35.2935C31.9904 35.4961 29.9938 35.5969 27.9961 35.5954C25.9989 35.5968 24.003 35.496 22.0164 35.2935C20.847 33.6835 19.7624 32.0147 18.7668 30.2935C17.7677 28.5771 16.8597 26.81 16.0466 24.9995C16.8597 23.1889 17.7677 21.4218 18.7668 19.7054C19.7608 17.9911 20.8421 16.3282 22.0065 14.7231C23.9968 14.5154 25.9967 14.412 27.998 14.4133C29.9951 14.4121 31.991 14.5129 33.9777 14.7152C35.1461 16.3229 36.2313 17.9884 37.2293 19.7054C38.2276 21.4222 39.1355 23.1893 39.9495 24.9995C39.1355 26.8096 38.2276 28.5767 37.2293 30.2935M41.3086 28.3328C41.9356 30.0296 42.4503 31.7653 42.8494 33.5288C41.1172 34.0648 39.3512 34.4873 37.5631 34.7935C38.2427 33.7765 38.9012 32.7183 39.5386 31.619C40.1688 30.5327 40.7594 29.4367 41.3165 28.3406M24.2466 38.1229C25.4754 38.1974 26.7298 38.2405 28 38.2405C29.2702 38.2405 30.5325 38.1974 31.7632 38.1229C30.5963 39.5101 29.3392 40.8201 28 42.0444C26.6636 40.8203 25.4098 39.5103 24.2466 38.1229ZM18.4349 34.7896C16.6462 34.4847 14.8796 34.0636 13.1466 33.5288C13.5442 31.7681 14.0569 30.0351 14.6815 28.3406C15.2307 29.4367 15.8194 30.5327 16.4594 31.619C17.0995 32.7053 17.7613 33.7758 18.4349 34.7935M14.6815 21.6563C14.0591 19.9682 13.5477 18.2417 13.1506 16.4878C14.8793 15.9524 16.6411 15.5286 18.425 15.2192C17.7494 16.2329 17.0876 17.2838 16.4496 18.3799C15.8115 19.476 15.2287 20.5583 14.6717 21.6563M31.7514 11.8741C30.5226 11.7996 29.2682 11.7564 27.9881 11.7564C26.7186 11.7564 25.4675 11.7957 24.2348 11.8741C25.398 10.4867 26.6518 9.17667 27.9881 7.95256C29.3279 9.17635 30.585 10.4864 31.7514 11.8741ZM39.5346 18.3799C38.8946 17.2793 38.2328 16.2205 37.5493 15.2035C39.3421 15.5097 41.1127 15.9328 42.8494 16.4701C42.451 18.2305 41.9382 19.9635 41.3145 21.6583C40.7653 20.5622 40.1747 19.4662 39.5366 18.3819M12.55 12.8702C12.0502 8.03883 13.0715 4.52122 15.3315 3.22516C16.0564 2.82844 16.8744 2.62953 17.702 2.64869C19.9757 2.64869 22.8737 3.88005 25.9613 6.24866C23.9938 8.08495 22.1882 10.085 20.5644 12.227C17.8887 12.5516 15.2453 13.0999 12.6626 13.8662C12.6172 13.5309 12.5757 13.1996 12.5441 12.8702M9.68957 17.7838C9.99379 17.6531 10.3039 17.5224 10.62 17.3917C11.2414 19.9937 12.084 22.5388 13.1387 24.9995C12.082 27.465 11.2387 30.0153 10.618 32.6229C5.58459 30.5739 2.66685 27.7347 2.66685 24.9995C2.66685 22.4073 5.23494 19.7779 9.68957 17.7838ZM15.3315 46.7737C13.0715 45.4777 12.0502 41.9601 12.55 37.1287C12.5816 36.7993 12.6231 36.468 12.6685 36.1307C15.2503 36.9022 17.8939 37.4526 20.5703 37.7758C22.1934 39.9173 23.9976 41.9173 25.9633 43.7542C21.6588 47.0541 17.7257 48.1424 15.3374 46.7737M43.452 37.1287C43.9458 41.962 42.9304 45.4777 40.6685 46.7737C38.2822 48.1463 34.3471 47.0541 30.0446 43.7542C32.0097 41.9173 33.8132 39.9172 35.4356 37.7758C38.1121 37.4528 40.7557 36.9024 43.3374 36.1307C43.3848 36.468 43.4243 36.7993 43.4579 37.1287M45.3899 32.619C44.7674 30.0129 43.9235 27.464 42.8672 24.9995C43.9231 22.5336 44.7663 19.9833 45.3879 17.376C50.4115 19.425 53.3371 22.2642 53.3371 24.9995C53.3371 27.7347 50.4194 30.5739 45.3859 32.6229" fill="#58C4DC"/>
</g>
<defs>
<clipPath id="clip0_9_533">
<rect width="56" height="50" fill="white"/>
</clipPath>
</defs>
</svg>
