<svg width="25" height="25" viewBox="0 0 25 25" fill="none" xmlns="http://www.w3.org/2000/svg">
<g clip-path="url(#clip0_17_2374)">
<path d="M17.3224 17.1614C18.2449 17.0659 18.9448 16.2706 18.913 15.3161C18.8812 14.3617 18.0858 13.5981 17.1314 13.5981H17.0679C16.0815 13.63 15.3181 14.4571 15.3499 15.4434C15.3817 15.9206 15.5726 16.3342 15.8589 16.6205C14.7772 18.7521 13.1229 20.311 10.6415 21.6154C8.95537 22.5062 7.20566 22.8244 5.45596 22.6018C4.02432 22.4108 2.91084 21.7746 2.21084 20.7246C1.19287 19.1657 1.09746 17.4795 1.95644 15.7934C2.56094 14.5844 3.51523 13.6936 4.11973 13.2481C3.99248 12.8346 3.80156 12.1347 3.70615 11.6257C-0.906837 14.9662 -0.429591 19.4839 0.970214 21.6154C2.02002 23.2062 4.15156 24.1925 6.50576 24.1925C7.14199 24.1925 7.77822 24.1288 8.41455 23.9698C12.4867 23.1744 15.5727 20.7564 17.3224 17.1614ZM22.9216 13.2164C20.5037 10.3849 16.9406 8.82598 12.8685 8.82598H12.3595C12.0731 8.25332 11.4687 7.87148 10.8006 7.87148H10.7369C9.75078 7.90332 8.9873 8.73047 9.01904 9.7168C9.05088 10.6712 9.84619 11.4348 10.8006 11.4348H10.8642C11.5641 11.4029 12.1686 10.9575 12.423 10.353H12.9957C15.4136 10.353 17.7041 11.0529 19.7721 12.421C21.3627 13.4709 22.508 14.839 23.1442 16.4933C23.6851 17.8295 23.6532 19.1339 23.0806 20.2475C22.1898 21.9336 20.6946 22.8562 18.7222 22.8562C17.4496 22.8562 16.2407 22.4744 15.6044 22.1881C15.2545 22.5062 14.6182 23.0152 14.1728 23.3335C15.5408 23.9697 16.9406 24.3197 18.2768 24.3197C21.3309 24.3197 23.5896 22.6335 24.4486 20.9474C25.3712 19.1021 25.3075 15.9206 22.9216 13.2164ZM6.76025 17.7021C6.79209 18.6566 7.5874 19.4201 8.5418 19.4201H8.60547C9.5917 19.3884 10.3552 18.5611 10.3233 17.5749C10.2916 16.6204 9.49619 15.8569 8.5418 15.8569H8.47822C8.41455 15.8569 8.31904 15.8569 8.25557 15.8887C6.95117 13.7253 6.41035 11.3711 6.60127 8.82588C6.72842 6.91699 7.36474 5.2626 8.47822 3.89453C9.40078 2.71738 11.1823 2.14473 12.3913 2.11299C15.7635 2.04932 17.195 6.24883 17.2905 7.93506C17.7041 8.03047 18.404 8.25322 18.8812 8.4123C18.4994 3.2584 15.3181 0.585938 12.2641 0.585938C9.40078 0.585938 6.76025 2.65391 5.71035 5.70811C4.24697 9.78037 5.20137 13.6936 6.98291 16.7796C6.82392 17.0022 6.72842 17.3521 6.76025 17.7021Z" fill="#764ABC"/>
</g>
<defs>
<clipPath id="clip0_17_2374">
<rect width="25" height="25" fill="white"/>
</clipPath>
</defs>
</svg>
