<svg width="50" height="50" viewBox="0 0 50 50" fill="none" xmlns="http://www.w3.org/2000/svg">
<path d="M45.8144 24.6198C45.8863 20.1812 44.8863 14.9031 42.803 8.71038L41.1696 3.85413L38.9509 8.47184C38.8321 8.71871 38.6967 8.96038 38.555 9.19892C34.9103 6.06975 30.1811 4.16663 24.9998 4.16663C13.4936 4.16663 4.1665 13.4937 4.1665 25C4.1665 36.5062 13.4936 45.8333 24.9998 45.8333C36.5061 45.8333 45.8332 36.5062 45.8332 25C45.8332 24.8718 45.8165 24.7479 45.8144 24.6198Z" fill="#8BC34A"/>
<path d="M41.026 33.9146C37.7729 38.3958 32.0146 38.6365 26.5948 38.5417H19.5313H17.5125C22.125 36.8823 24.8698 36.4875 27.6729 35C32.9521 32.224 38.1708 26.15 39.2573 19.8312C37.2469 25.9104 31.1542 31.1333 25.6021 33.2573C21.7979 34.7083 14.9271 36.1167 14.9271 36.1167L14.649 35.9656C9.97188 33.6125 9.83021 23.1396 18.3333 19.7583C22.0563 18.276 25.6177 19.0906 29.6396 18.099C33.9333 17.0448 38.9 13.7156 40.9208 9.375C43.1833 16.3198 45.9062 27.1937 41.026 33.9146ZM16.3208 40.0469C16.0271 40.4115 15.5781 40.625 15.1094 40.625C14.2521 40.625 13.5521 39.9198 13.5521 39.0625C13.5521 38.2052 14.2573 37.5 15.1094 37.5C15.4646 37.5 15.8146 37.6229 16.0896 37.85C16.7563 38.3906 16.8604 39.3802 16.3208 40.0469Z" fill="white"/>
</svg>
