<svg width="25" height="25" viewBox="0 0 25 25" fill="none" xmlns="http://www.w3.org/2000/svg">
<path d="M21.875 3.125H3.125V21.875H21.875V3.125Z" fill="#1976D2"/>
<path d="M14.3177 11.4584H7.40991V13.1584H9.88752V20.8334H11.8505V13.1584H14.3177V11.4584Z" fill="white"/>
<path d="M20.4134 13.5854C20.4134 13.5854 19.4827 12.9646 18.4306 12.9646C17.3785 12.9646 16.9999 13.4646 16.9999 13.9989C16.9999 15.3781 20.8442 15.2401 20.8442 18.0156C20.8442 22.2911 14.9827 20.3948 14.9827 20.3948V18.3437C14.9827 18.3437 16.1035 19.1885 17.4478 19.1885C18.7921 19.1885 18.741 18.3094 18.741 18.1885C18.741 16.913 14.9312 16.913 14.9312 14.0854C14.9312 10.2411 20.4822 11.7578 20.4822 11.7578L20.4134 13.5854Z" fill="white"/>
</svg>
