<svg width="25" height="25" viewBox="0 0 25 25" fill="none" xmlns="http://www.w3.org/2000/svg">
<path d="M23.3646 5.19587L13.0329 23.6709C12.8193 24.0521 12.2714 24.0547 12.0547 23.675L1.51828 5.19743C1.28234 4.78389 1.63599 4.28285 2.10474 4.3667L12.448 6.21566C12.5141 6.22764 12.5813 6.22712 12.6474 6.21514L22.774 4.36931C23.2412 4.28389 23.5964 4.78129 23.3646 5.19587Z" fill="#9575CD"/>
<path d="M17.4865 1.56776L9.90572 3.05318C9.78124 3.07766 9.68906 3.18339 9.68124 3.30995L9.2151 11.1855C9.20416 11.3709 9.37447 11.5152 9.55572 11.473L11.6661 10.986C11.8635 10.9407 12.0422 11.1141 12.0016 11.3131L11.3745 14.3834C11.3323 14.5902 11.526 14.7667 11.7281 14.7053L13.0318 14.3094C13.2338 14.248 13.4281 14.4251 13.3854 14.6323L12.3891 19.4553C12.3266 19.7568 12.7281 19.9214 12.8953 19.6626L13.0073 19.4896L19.1844 7.16203C19.288 6.95578 19.1094 6.72037 18.8828 6.76412L16.7104 7.18339C16.5062 7.22297 16.3328 7.03287 16.3901 6.83287L17.8078 1.91724C17.8651 1.71828 17.6911 1.52766 17.4865 1.56776Z" fill="#FBC02D"/>
</svg>
